<svg width="22" height="16" viewBox="0 0 22 16" fill="none" xmlns="http://www.w3.org/2000/svg">
<path fill-rule="evenodd" clip-rule="evenodd" d="M11 14.1C7.92425 14.1 4.6859 12.1814 2.05504 8.00001C4.6859 3.81864 7.92425 1.90001 11 1.90001C14.0757 1.90001 17.314 3.81863 19.9449 8.00001C17.314 12.1814 14.0757 14.1 11 14.1ZM21.7733 7.53967C18.897 2.70743 15.0358 0.100005 11 0.100006C6.9642 0.100007 3.10294 2.70744 0.226612 7.53967C0.0577634 7.82334 0.0577634 8.17668 0.226612 8.46034C3.10294 13.2926 6.9642 15.9 11 15.9C15.0358 15.9 18.897 13.2926 21.7733 8.46034C21.9422 8.17668 21.9422 7.82334 21.7733 7.53967ZM11 11C12.6568 11 14 9.65686 14 8.00001C14 6.34315 12.6568 5.00001 11 5.00001C9.34312 5.00001 7.99998 6.34315 7.99998 8.00001C7.99998 9.65686 9.34312 11 11 11Z" fill="#6F32D2"/>
</svg>
